<svg width="80" height="80" viewBox="0 0 80 80" fill="none" xmlns="http://www.w3.org/2000/svg">
    <path d="M40.625 32.188h4.688v-9.376h-4.688V4.063H0V22.812h4.688v9.375H0v18.75h4.688v9.376H0v9.374h40.625v-9.374h4.688v-9.376h-4.688v-18.75z" fill="#FFEA84"/>
    <path d="M40.625 32.188h4.688v-9.376h-4.688V4.063H22.656v65.624h17.969v-9.374h4.688v-9.376h-4.688v-18.75z" fill="#FFDC40"/>
    <path d="M45.313 50.938H4.687v9.374h40.626v-9.374zM40.625 32.188H0v9.374h40.625v-9.374zM40.625 13.438H0v9.374h40.625v-9.375z" fill="#FFDC40"/>
    <path d="M40.625 32.188H22.656v9.374h17.969v-9.374zM40.625 13.438H22.656v9.374h17.969v-9.375zM45.313 50.938H22.655v9.374h22.657v-9.374z" fill="#FFAB15"/>
    <path d="M57.344 75.938c-12.493 0-22.657-10.164-22.657-22.657 0-12.492 10.164-22.656 22.657-22.656C69.836 30.625 80 40.789 80 53.281c0 12.493-10.164 22.657-22.656 22.657z" fill="#76CC5B"/>
    <path d="M57.344 30.625v45.313C69.836 75.938 80 65.773 80 53.28c0-12.492-10.164-22.656-22.656-22.656z" fill="#599944"/>
    <path d="M64.375 57.969a7.04 7.04 0 0 0-7.031-7.032 2.346 2.346 0 0 1-1.857-3.774c.496-.641 1.34-.963 2.203-.84l4.791.685.663-4.64-3.456-.494v-2.655H55v2.783a6.9 6.9 0 0 0-3.221 2.294 6.967 6.967 0 0 0-1.467 4.298 7.04 7.04 0 0 0 7.032 7.031 2.346 2.346 0 0 1 2.343 2.344 2.347 2.347 0 0 1-2.032 2.323 2.07 2.07 0 0 1-.437.001l-5.143-.44-.4 4.67 3.325.285v2.536h4.688v-2.747c2.75-.975 4.687-3.61 4.687-6.628z" fill="#F2F2F4"/>
    <path d="M57.344 39.219v7.079c.114 0 .23.009.346.025l4.791.684.663-4.64-3.456-.493v-2.655h-2.344zM57.344 50.938v4.687a2.346 2.346 0 0 1 2.343 2.344 2.347 2.347 0 0 1-2.032 2.323 1.818 1.818 0 0 1-.311.01v7.042h2.343v-2.747c2.752-.975 4.688-3.61 4.688-6.628a7.04 7.04 0 0 0-7.031-7.032z" fill="#DFDFE1"/>
</svg>
