<svg width="24" height="24" viewBox="0 0 24 24" fill="none" xmlns="http://www.w3.org/2000/svg">
    <path d="M7.907 14.88H6.616a.646.646 0 1 0 0 1.292h1.291a.646.646 0 1 0 0-1.291zM17.722 14.88H16.43a.646.646 0 0 0 0 1.292h1.292a.646.646 0 0 0 0-1.291z" fill="#1B3510"/>
    <path d="M20.821 8.596c0-.735-.358-1.403-.904-1.842v-1.57C19.917 3.978 18.95 3 17.761 3H6.544c-1.17 0-2.124.98-2.124 2.184V6.73a2.372 2.372 0 0 0-.903 1.865v1.581c-.32.346-.517.806-.517 1.314v7.426c0 1.07.867 1.937 1.937 1.937h14.431c1.07 0 1.937-.867 1.937-1.937v-7.426c0-.49-.183-.937-.484-1.278V8.596zM5.711 5.184c0-.492.374-.893.834-.893H17.76c.469 0 .865.41.865.893v1.054c-.06-.005-12.865-.005-12.914-.002V5.184zm-.903 3.412c0-.583.48-1.076 1.05-1.076h12.59c.576 0 1.082.503 1.082 1.076v.966c-.054-.005-14.68-.005-14.722-.002v-.964zm15.206 10.32c0 .357-.29.647-.646.647H4.938a.647.647 0 0 1-.646-.646V11.49a.64.64 0 0 1 .168-.43.646.646 0 0 0 .18-.14.638.638 0 0 1 .297-.076h14.431c.356 0 .646.29.646.646v7.426z" fill="#1B3510"/>
    <path d="M12.311 14.61h-.316a.276.276 0 0 1 0-.553h1.054a.646.646 0 1 0 0-1.291h-.25v-.403a.646.646 0 0 0-1.292 0v.481a1.57 1.57 0 0 0-1.08 1.489 1.57 1.57 0 0 0 1.567 1.567h.317a.276.276 0 0 1 0 .552h-1.054a.646.646 0 0 0 0 1.292h.25v.301a.646.646 0 1 0 1.292 0v-.38a1.57 1.57 0 0 0 1.08-1.489 1.57 1.57 0 0 0-1.568-1.567z" fill="#1B3510"/>
</svg>
